<mxfile host="app.diagrams.net" agent="Mozilla/5.0 (Macintosh; Intel Mac OS X 10_15_7) AppleWebKit/537.36 (KHTML, like Gecko) Chrome/138.0.0.0 Safari/537.36" version="28.0.9">
  <diagram name="Page-1" id="3Y9w9-49IDmrzCQ3SCV3">
    <mxGraphModel grid="1" page="1" gridSize="10" guides="1" tooltips="1" connect="1" arrows="1" fold="1" pageScale="1" pageWidth="850" pageHeight="1100" math="0" shadow="0">
      <root>
        <mxCell id="0" />
        <mxCell id="1" parent="0" />
        <mxCell id="zHlLIxlJmCpqL7pYZ1hR-18" value="" style="group" connectable="0" vertex="1" parent="1">
          <mxGeometry x="140" y="-2160" width="600" height="1950" as="geometry" />
        </mxCell>
        <mxCell id="8zSvVwhYpzBeAdVBtArC-1" value="START" style="ellipse;whiteSpace=wrap;html=1;fillColor=#d5e8d4;strokeColor=#82b366;" vertex="1" parent="zHlLIxlJmCpqL7pYZ1hR-18">
          <mxGeometry x="177.49999999999994" width="120" height="80" as="geometry" />
        </mxCell>
        <mxCell id="8zSvVwhYpzBeAdVBtArC-2" value="END" style="ellipse;whiteSpace=wrap;html=1;fillColor=#f8cecc;strokeColor=#b85450;" vertex="1" parent="zHlLIxlJmCpqL7pYZ1hR-18">
          <mxGeometry x="369.06000000000006" y="1870" width="105.94" height="80" as="geometry" />
        </mxCell>
        <mxCell id="8zSvVwhYpzBeAdVBtArC-3" value="Initialize system&lt;div&gt;(load feeding schedule)&lt;/div&gt;" style="rounded=0;whiteSpace=wrap;html=1;fillColor=#dae8fc;strokeColor=#6c8ebf;" vertex="1" parent="zHlLIxlJmCpqL7pYZ1hR-18">
          <mxGeometry x="171.25" y="280" width="120" height="60" as="geometry" />
        </mxCell>
        <mxCell id="8zSvVwhYpzBeAdVBtArC-5" value="current time&lt;div&gt;=&lt;br&gt;&lt;div&gt;&lt;div&gt;feeding&amp;nbsp;&lt;div&gt;time?&lt;/div&gt;&lt;/div&gt;&lt;/div&gt;&lt;/div&gt;" style="rhombus;whiteSpace=wrap;html=1;fillColor=#0050ef;fontColor=#ffffff;strokeColor=#001DBC;" vertex="1" parent="zHlLIxlJmCpqL7pYZ1hR-18">
          <mxGeometry x="168.12" y="660" width="125.94" height="130" as="geometry" />
        </mxCell>
        <mxCell id="8zSvVwhYpzBeAdVBtArC-6" value="food level &amp;gt;10%?" style="rhombus;whiteSpace=wrap;html=1;fillColor=#0050ef;fontColor=#ffffff;strokeColor=#001DBC;" vertex="1" parent="zHlLIxlJmCpqL7pYZ1hR-18">
          <mxGeometry x="170.01" y="840" width="122.5" height="120" as="geometry" />
        </mxCell>
        <mxCell id="8zSvVwhYpzBeAdVBtArC-8" value="" style="endArrow=classic;html=1;rounded=0;exitX=0.5;exitY=1;exitDx=0;exitDy=0;entryX=0.5;entryY=0;entryDx=0;entryDy=0;" edge="1" parent="zHlLIxlJmCpqL7pYZ1hR-18" source="8zSvVwhYpzBeAdVBtArC-3">
          <mxGeometry width="50" height="50" relative="1" as="geometry">
            <mxPoint x="241.25" y="520" as="sourcePoint" />
            <mxPoint x="231.25" y="390" as="targetPoint" />
          </mxGeometry>
        </mxCell>
        <mxCell id="8zSvVwhYpzBeAdVBtArC-10" value="" style="endArrow=classic;html=1;rounded=0;exitX=0.5;exitY=1;exitDx=0;exitDy=0;entryX=0.5;entryY=0;entryDx=0;entryDy=0;" edge="1" parent="zHlLIxlJmCpqL7pYZ1hR-18" source="8zSvVwhYpzBeAdVBtArC-5" target="8zSvVwhYpzBeAdVBtArC-6">
          <mxGeometry width="50" height="50" relative="1" as="geometry">
            <mxPoint x="240" y="640" as="sourcePoint" />
            <mxPoint x="290" y="590" as="targetPoint" />
          </mxGeometry>
        </mxCell>
        <mxCell id="8zSvVwhYpzBeAdVBtArC-12" value="YES" style="text;html=1;align=center;verticalAlign=middle;whiteSpace=wrap;rounded=0;" vertex="1" parent="zHlLIxlJmCpqL7pYZ1hR-18">
          <mxGeometry x="280" y="520" width="60" height="30" as="geometry" />
        </mxCell>
        <mxCell id="8zSvVwhYpzBeAdVBtArC-13" value="NO" style="text;html=1;align=center;verticalAlign=middle;whiteSpace=wrap;rounded=0;" vertex="1" parent="zHlLIxlJmCpqL7pYZ1hR-18">
          <mxGeometry x="220" y="610" width="60" height="30" as="geometry" />
        </mxCell>
        <mxCell id="8zSvVwhYpzBeAdVBtArC-15" value="" style="endArrow=classic;html=1;rounded=0;exitX=1;exitY=0.5;exitDx=0;exitDy=0;" edge="1" parent="zHlLIxlJmCpqL7pYZ1hR-18" source="8zSvVwhYpzBeAdVBtArC-6">
          <mxGeometry width="50" height="50" relative="1" as="geometry">
            <mxPoint x="330" y="860" as="sourcePoint" />
            <mxPoint x="380" y="900" as="targetPoint" />
          </mxGeometry>
        </mxCell>
        <mxCell id="8zSvVwhYpzBeAdVBtArC-16" value="YES" style="text;html=1;align=center;verticalAlign=middle;whiteSpace=wrap;rounded=0;" vertex="1" parent="zHlLIxlJmCpqL7pYZ1hR-18">
          <mxGeometry x="220" y="970" width="60" height="30" as="geometry" />
        </mxCell>
        <mxCell id="8zSvVwhYpzBeAdVBtArC-17" value="NO" style="text;html=1;align=center;verticalAlign=middle;whiteSpace=wrap;rounded=0;" vertex="1" parent="zHlLIxlJmCpqL7pYZ1hR-18">
          <mxGeometry x="114.06" y="690" width="60" height="30" as="geometry" />
        </mxCell>
        <mxCell id="8zSvVwhYpzBeAdVBtArC-19" value="motor control: ON&lt;div&gt;&lt;span style=&quot;background-color: transparent; color: light-dark(rgb(0, 0, 0), rgb(255, 255, 255));&quot;&gt;Dispense food&lt;/span&gt;&lt;/div&gt;" style="rounded=0;whiteSpace=wrap;html=1;fillColor=#dae8fc;strokeColor=#6c8ebf;" vertex="1" parent="zHlLIxlJmCpqL7pYZ1hR-18">
          <mxGeometry x="178.75" y="1020" width="120" height="60" as="geometry" />
        </mxCell>
        <mxCell id="8zSvVwhYpzBeAdVBtArC-20" value="status display&lt;div&gt;&lt;div&gt;&quot;FEEDING&quot; (YELLOW LED)&lt;/div&gt;&lt;/div&gt;" style="rounded=0;whiteSpace=wrap;html=1;fillColor=#fff2cc;strokeColor=#d6b656;gradientColor=#ffd966;" vertex="1" parent="zHlLIxlJmCpqL7pYZ1hR-18">
          <mxGeometry x="177.5" y="1110" width="120" height="60" as="geometry" />
        </mxCell>
        <mxCell id="8zSvVwhYpzBeAdVBtArC-21" value="" style="endArrow=classic;html=1;rounded=0;exitX=0.5;exitY=1;exitDx=0;exitDy=0;entryX=0.5;entryY=0;entryDx=0;entryDy=0;" edge="1" parent="zHlLIxlJmCpqL7pYZ1hR-18" source="8zSvVwhYpzBeAdVBtArC-19" target="8zSvVwhYpzBeAdVBtArC-20">
          <mxGeometry width="50" height="50" relative="1" as="geometry">
            <mxPoint x="240" y="1160" as="sourcePoint" />
            <mxPoint x="290" y="1110" as="targetPoint" />
          </mxGeometry>
        </mxCell>
        <mxCell id="8zSvVwhYpzBeAdVBtArC-23" value="" style="endArrow=classic;html=1;rounded=0;exitX=0.5;exitY=1;exitDx=0;exitDy=0;" edge="1" parent="zHlLIxlJmCpqL7pYZ1hR-18" source="8zSvVwhYpzBeAdVBtArC-20">
          <mxGeometry width="50" height="50" relative="1" as="geometry">
            <mxPoint x="240" y="1260" as="sourcePoint" />
            <mxPoint x="238" y="1210" as="targetPoint" />
          </mxGeometry>
        </mxCell>
        <mxCell id="8zSvVwhYpzBeAdVBtArC-24" value="Manual feed&lt;div&gt;triggered?&lt;/div&gt;" style="rhombus;whiteSpace=wrap;html=1;fillColor=#0050ef;strokeColor=#001DBC;fontColor=#ffffff;" vertex="1" parent="zHlLIxlJmCpqL7pYZ1hR-18">
          <mxGeometry x="178.75" y="500" width="105" height="110" as="geometry" />
        </mxCell>
        <mxCell id="8zSvVwhYpzBeAdVBtArC-26" value="" style="endArrow=classic;html=1;rounded=0;exitX=0.5;exitY=1;exitDx=0;exitDy=0;entryX=0.5;entryY=0;entryDx=0;entryDy=0;" edge="1" parent="zHlLIxlJmCpqL7pYZ1hR-18" target="8zSvVwhYpzBeAdVBtArC-24">
          <mxGeometry width="50" height="50" relative="1" as="geometry">
            <mxPoint x="231.25" y="450" as="sourcePoint" />
            <mxPoint x="290" y="450" as="targetPoint" />
          </mxGeometry>
        </mxCell>
        <mxCell id="8zSvVwhYpzBeAdVBtArC-27" value="" style="endArrow=classic;html=1;rounded=0;exitX=0.5;exitY=1;exitDx=0;exitDy=0;" edge="1" parent="zHlLIxlJmCpqL7pYZ1hR-18" source="8zSvVwhYpzBeAdVBtArC-24">
          <mxGeometry width="50" height="50" relative="1" as="geometry">
            <mxPoint x="240" y="680" as="sourcePoint" />
            <mxPoint x="231" y="660" as="targetPoint" />
          </mxGeometry>
        </mxCell>
        <mxCell id="8zSvVwhYpzBeAdVBtArC-28" value="" style="endArrow=classic;html=1;rounded=0;exitX=1;exitY=0.5;exitDx=0;exitDy=0;" edge="1" parent="zHlLIxlJmCpqL7pYZ1hR-18" source="8zSvVwhYpzBeAdVBtArC-24">
          <mxGeometry width="50" height="50" relative="1" as="geometry">
            <mxPoint x="240" y="680" as="sourcePoint" />
            <mxPoint x="360" y="555" as="targetPoint" />
          </mxGeometry>
        </mxCell>
        <mxCell id="8zSvVwhYpzBeAdVBtArC-29" value="read current&amp;nbsp;&lt;div&gt;time&lt;/div&gt;" style="shape=parallelogram;perimeter=parallelogramPerimeter;whiteSpace=wrap;html=1;fixedSize=1;fillColor=#f5f5f5;strokeColor=#666666;fontColor=#333333;" vertex="1" parent="zHlLIxlJmCpqL7pYZ1hR-18">
          <mxGeometry x="171.25" y="390" width="120" height="60" as="geometry" />
        </mxCell>
        <mxCell id="8zSvVwhYpzBeAdVBtArC-30" value="manual feed by&amp;nbsp;&lt;div&gt;staffs&lt;/div&gt;" style="rounded=0;whiteSpace=wrap;html=1;fillColor=#dae8fc;strokeColor=#6c8ebf;" vertex="1" parent="zHlLIxlJmCpqL7pYZ1hR-18">
          <mxGeometry x="360" y="525" width="120" height="60" as="geometry" />
        </mxCell>
        <mxCell id="8zSvVwhYpzBeAdVBtArC-31" value="YES" style="text;html=1;align=center;verticalAlign=middle;whiteSpace=wrap;rounded=0;" vertex="1" parent="zHlLIxlJmCpqL7pYZ1hR-18">
          <mxGeometry x="220" y="800" width="60" height="30" as="geometry" />
        </mxCell>
        <mxCell id="8zSvVwhYpzBeAdVBtArC-32" value="" style="endArrow=classic;html=1;rounded=0;exitX=0.5;exitY=1;exitDx=0;exitDy=0;entryX=0.427;entryY=0.017;entryDx=0;entryDy=0;entryPerimeter=0;" edge="1" parent="zHlLIxlJmCpqL7pYZ1hR-18" source="8zSvVwhYpzBeAdVBtArC-6" target="8zSvVwhYpzBeAdVBtArC-19">
          <mxGeometry width="50" height="50" relative="1" as="geometry">
            <mxPoint x="240" y="950" as="sourcePoint" />
            <mxPoint x="290" y="900" as="targetPoint" />
          </mxGeometry>
        </mxCell>
        <mxCell id="8zSvVwhYpzBeAdVBtArC-33" value="wait 10 mins.&lt;div&gt;(allow pet to eat)&lt;/div&gt;" style="rounded=0;whiteSpace=wrap;html=1;fillColor=#dae8fc;strokeColor=#6c8ebf;" vertex="1" parent="zHlLIxlJmCpqL7pYZ1hR-18">
          <mxGeometry x="178.75" y="1210" width="120" height="60" as="geometry" />
        </mxCell>
        <mxCell id="8zSvVwhYpzBeAdVBtArC-34" value="bowl weight&lt;div&gt;decreased?&lt;/div&gt;" style="rhombus;whiteSpace=wrap;html=1;fillColor=#0050ef;fontColor=#ffffff;strokeColor=#001DBC;" vertex="1" parent="zHlLIxlJmCpqL7pYZ1hR-18">
          <mxGeometry x="181.25" y="1330" width="102.5" height="110" as="geometry" />
        </mxCell>
        <mxCell id="8zSvVwhYpzBeAdVBtArC-35" value="" style="endArrow=classic;html=1;rounded=0;exitX=0.452;exitY=1;exitDx=0;exitDy=0;exitPerimeter=0;entryX=0.5;entryY=0;entryDx=0;entryDy=0;" edge="1" parent="zHlLIxlJmCpqL7pYZ1hR-18" source="8zSvVwhYpzBeAdVBtArC-33" target="8zSvVwhYpzBeAdVBtArC-34">
          <mxGeometry width="50" height="50" relative="1" as="geometry">
            <mxPoint x="240" y="1390" as="sourcePoint" />
            <mxPoint x="290" y="1340" as="targetPoint" />
          </mxGeometry>
        </mxCell>
        <mxCell id="8zSvVwhYpzBeAdVBtArC-37" value="" style="endArrow=classic;html=1;rounded=0;exitX=1;exitY=0.5;exitDx=0;exitDy=0;" edge="1" parent="zHlLIxlJmCpqL7pYZ1hR-18" source="8zSvVwhYpzBeAdVBtArC-34">
          <mxGeometry width="50" height="50" relative="1" as="geometry">
            <mxPoint x="340" y="1400" as="sourcePoint" />
            <mxPoint x="380" y="1385" as="targetPoint" />
          </mxGeometry>
        </mxCell>
        <mxCell id="8zSvVwhYpzBeAdVBtArC-38" value="" style="endArrow=classic;html=1;rounded=0;exitX=0.5;exitY=1;exitDx=0;exitDy=0;" edge="1" parent="zHlLIxlJmCpqL7pYZ1hR-18" source="8zSvVwhYpzBeAdVBtArC-34">
          <mxGeometry width="50" height="50" relative="1" as="geometry">
            <mxPoint x="247.5" y="1470" as="sourcePoint" />
            <mxPoint x="233" y="1500" as="targetPoint" />
          </mxGeometry>
        </mxCell>
        <mxCell id="8zSvVwhYpzBeAdVBtArC-39" value="YES" style="text;html=1;align=center;verticalAlign=middle;whiteSpace=wrap;rounded=0;" vertex="1" parent="zHlLIxlJmCpqL7pYZ1hR-18">
          <mxGeometry x="228.43" y="1450" width="60" height="30" as="geometry" />
        </mxCell>
        <mxCell id="8zSvVwhYpzBeAdVBtArC-40" value="NO" style="text;html=1;align=center;verticalAlign=middle;whiteSpace=wrap;rounded=0;" vertex="1" parent="zHlLIxlJmCpqL7pYZ1hR-18">
          <mxGeometry x="280" y="870" width="60" height="30" as="geometry" />
        </mxCell>
        <mxCell id="8zSvVwhYpzBeAdVBtArC-41" value="NO" style="text;html=1;align=center;verticalAlign=middle;whiteSpace=wrap;rounded=0;" vertex="1" parent="zHlLIxlJmCpqL7pYZ1hR-18">
          <mxGeometry x="270" y="1360" width="60" height="30" as="geometry" />
        </mxCell>
        <mxCell id="8zSvVwhYpzBeAdVBtArC-42" value="feeding complete&lt;div&gt;(reset for next cycle)&lt;/div&gt;" style="rounded=0;whiteSpace=wrap;html=1;fillColor=#dae8fc;strokeColor=#6c8ebf;" vertex="1" parent="zHlLIxlJmCpqL7pYZ1hR-18">
          <mxGeometry x="177.5" y="1500" width="120" height="60" as="geometry" />
        </mxCell>
        <mxCell id="8zSvVwhYpzBeAdVBtArC-43" value="status display&lt;div&gt;&lt;div&gt;&quot;NORMAL&quot;&amp;nbsp;&lt;/div&gt;&lt;div&gt;(GREEN LED)&lt;/div&gt;&lt;/div&gt;" style="rounded=0;whiteSpace=wrap;html=1;fillColor=#60a917;fontColor=#ffffff;strokeColor=#2D7600;" vertex="1" parent="zHlLIxlJmCpqL7pYZ1hR-18">
          <mxGeometry x="174.06" y="1610" width="120" height="60" as="geometry" />
        </mxCell>
        <mxCell id="8zSvVwhYpzBeAdVBtArC-45" value="" style="endArrow=classic;html=1;rounded=0;exitX=0.5;exitY=1;exitDx=0;exitDy=0;entryX=0.5;entryY=0;entryDx=0;entryDy=0;" edge="1" parent="zHlLIxlJmCpqL7pYZ1hR-18" source="8zSvVwhYpzBeAdVBtArC-43">
          <mxGeometry width="50" height="50" relative="1" as="geometry">
            <mxPoint x="240" y="1710" as="sourcePoint" />
            <mxPoint x="234.06000000000017" y="1720" as="targetPoint" />
          </mxGeometry>
        </mxCell>
        <mxCell id="8zSvVwhYpzBeAdVBtArC-47" value="" style="endArrow=classic;html=1;rounded=0;exitX=0.5;exitY=1;exitDx=0;exitDy=0;entryX=0.5;entryY=0;entryDx=0;entryDy=0;" edge="1" parent="zHlLIxlJmCpqL7pYZ1hR-18">
          <mxGeometry width="50" height="50" relative="1" as="geometry">
            <mxPoint x="233.56" y="1560" as="sourcePoint" />
            <mxPoint x="233.56" y="1610" as="targetPoint" />
          </mxGeometry>
        </mxCell>
        <mxCell id="8zSvVwhYpzBeAdVBtArC-48" value="ALERT notification&lt;div&gt;&quot;Food Container Empty&quot;&lt;/div&gt;" style="rounded=0;whiteSpace=wrap;html=1;" vertex="1" parent="zHlLIxlJmCpqL7pYZ1hR-18">
          <mxGeometry x="380" y="870" width="120" height="60" as="geometry" />
        </mxCell>
        <mxCell id="8zSvVwhYpzBeAdVBtArC-49" value="status display&lt;div&gt;&lt;div&gt;&quot;LOW FOOD&quot;&amp;nbsp;&lt;/div&gt;&lt;div&gt;(RED LED)&lt;/div&gt;&lt;/div&gt;" style="rounded=0;whiteSpace=wrap;html=1;fillColor=#e51400;strokeColor=#B20000;fontColor=#ffffff;" vertex="1" parent="zHlLIxlJmCpqL7pYZ1hR-18">
          <mxGeometry x="380" y="990" width="120" height="60" as="geometry" />
        </mxCell>
        <mxCell id="8zSvVwhYpzBeAdVBtArC-50" value="" style="endArrow=classic;html=1;rounded=0;exitX=0.5;exitY=1;exitDx=0;exitDy=0;entryX=0.5;entryY=0;entryDx=0;entryDy=0;" edge="1" parent="zHlLIxlJmCpqL7pYZ1hR-18" source="8zSvVwhYpzBeAdVBtArC-48" target="8zSvVwhYpzBeAdVBtArC-49">
          <mxGeometry width="50" height="50" relative="1" as="geometry">
            <mxPoint x="240" y="990" as="sourcePoint" />
            <mxPoint x="290" y="940" as="targetPoint" />
          </mxGeometry>
        </mxCell>
        <mxCell id="8zSvVwhYpzBeAdVBtArC-51" value="ALERT notification&lt;div&gt;&quot;Pet hasn&#39;t eaten&quot;&lt;/div&gt;" style="rounded=0;whiteSpace=wrap;html=1;" vertex="1" parent="zHlLIxlJmCpqL7pYZ1hR-18">
          <mxGeometry x="380" y="1355" width="120" height="60" as="geometry" />
        </mxCell>
        <mxCell id="8zSvVwhYpzBeAdVBtArC-52" value="status display&lt;div&gt;&lt;div&gt;&quot;CHECK PET&quot;&amp;nbsp;&lt;/div&gt;&lt;div&gt;(RED LED)&lt;/div&gt;&lt;/div&gt;" style="rounded=0;whiteSpace=wrap;html=1;fillColor=#e51400;strokeColor=#B20000;fontColor=#ffffff;" vertex="1" parent="zHlLIxlJmCpqL7pYZ1hR-18">
          <mxGeometry x="380" y="1470" width="120" height="60" as="geometry" />
        </mxCell>
        <mxCell id="8zSvVwhYpzBeAdVBtArC-53" value="" style="endArrow=classic;html=1;rounded=0;exitX=0.5;exitY=1;exitDx=0;exitDy=0;entryX=0.5;entryY=0;entryDx=0;entryDy=0;" edge="1" parent="zHlLIxlJmCpqL7pYZ1hR-18" source="8zSvVwhYpzBeAdVBtArC-51" target="8zSvVwhYpzBeAdVBtArC-52">
          <mxGeometry width="50" height="50" relative="1" as="geometry">
            <mxPoint x="240" y="1530" as="sourcePoint" />
            <mxPoint x="290" y="1480" as="targetPoint" />
          </mxGeometry>
        </mxCell>
        <mxCell id="8zSvVwhYpzBeAdVBtArC-55" value="" style="edgeStyle=elbowEdgeStyle;elbow=horizontal;endArrow=classic;html=1;curved=0;rounded=0;endSize=8;startSize=8;entryX=1;entryY=0;entryDx=0;entryDy=0;" edge="1" parent="zHlLIxlJmCpqL7pYZ1hR-18" target="8zSvVwhYpzBeAdVBtArC-64">
          <mxGeometry width="50" height="50" relative="1" as="geometry">
            <mxPoint x="460" y="1530" as="sourcePoint" />
            <mxPoint x="322.03" y="1750" as="targetPoint" />
            <Array as="points">
              <mxPoint x="440" y="1710" />
            </Array>
          </mxGeometry>
        </mxCell>
        <mxCell id="8zSvVwhYpzBeAdVBtArC-58" value="" style="endArrow=classic;html=1;rounded=0;exitX=0.5;exitY=1;exitDx=0;exitDy=0;entryX=1;entryY=0.5;entryDx=0;entryDy=0;" edge="1" parent="zHlLIxlJmCpqL7pYZ1hR-18" source="8zSvVwhYpzBeAdVBtArC-30" target="8zSvVwhYpzBeAdVBtArC-5">
          <mxGeometry width="50" height="50" relative="1" as="geometry">
            <mxPoint x="240" y="600" as="sourcePoint" />
            <mxPoint x="290" y="550" as="targetPoint" />
            <Array as="points">
              <mxPoint x="420" y="725" />
            </Array>
          </mxGeometry>
        </mxCell>
        <mxCell id="8zSvVwhYpzBeAdVBtArC-59" value="" style="endArrow=classic;html=1;rounded=0;exitX=0;exitY=0.5;exitDx=0;exitDy=0;entryX=0;entryY=0.5;entryDx=0;entryDy=0;" edge="1" parent="zHlLIxlJmCpqL7pYZ1hR-18" source="8zSvVwhYpzBeAdVBtArC-5" target="8zSvVwhYpzBeAdVBtArC-29">
          <mxGeometry width="50" height="50" relative="1" as="geometry">
            <mxPoint x="20" y="610" as="sourcePoint" />
            <mxPoint x="70" y="420" as="targetPoint" />
            <Array as="points">
              <mxPoint x="70" y="725" />
              <mxPoint x="70" y="420" />
            </Array>
          </mxGeometry>
        </mxCell>
        <mxCell id="8zSvVwhYpzBeAdVBtArC-60" value="" style="endArrow=classic;html=1;rounded=0;exitX=1;exitY=0.5;exitDx=0;exitDy=0;entryX=1;entryY=1;entryDx=0;entryDy=0;" edge="1" parent="zHlLIxlJmCpqL7pYZ1hR-18" source="8zSvVwhYpzBeAdVBtArC-49" target="8zSvVwhYpzBeAdVBtArC-64">
          <mxGeometry width="50" height="50" relative="1" as="geometry">
            <mxPoint x="460" y="1210" as="sourcePoint" />
            <mxPoint x="330" y="1790" as="targetPoint" />
            <Array as="points">
              <mxPoint x="600" y="1020" />
              <mxPoint x="600" y="1784" />
            </Array>
          </mxGeometry>
        </mxCell>
        <mxCell id="8zSvVwhYpzBeAdVBtArC-61" value="" style="endArrow=classic;html=1;rounded=0;exitX=0;exitY=0.5;exitDx=0;exitDy=0;entryX=0;entryY=0;entryDx=0;entryDy=0;" edge="1" parent="zHlLIxlJmCpqL7pYZ1hR-18" source="8zSvVwhYpzBeAdVBtArC-63" target="8zSvVwhYpzBeAdVBtArC-29">
          <mxGeometry width="50" height="50" relative="1" as="geometry">
            <mxPoint x="146.09000000000015" y="1750" as="sourcePoint" />
            <mxPoint y="720" as="targetPoint" />
            <Array as="points">
              <mxPoint y="1775" />
              <mxPoint y="399" />
            </Array>
          </mxGeometry>
        </mxCell>
        <mxCell id="8zSvVwhYpzBeAdVBtArC-63" value="system SHUTDOWN?" style="rhombus;whiteSpace=wrap;html=1;fillColor=#0050ef;fontColor=#ffffff;strokeColor=#001DBC;" vertex="1" parent="zHlLIxlJmCpqL7pYZ1hR-18">
          <mxGeometry x="182.10999999999996" y="1720" width="103.91" height="110" as="geometry" />
        </mxCell>
        <mxCell id="8zSvVwhYpzBeAdVBtArC-64" value="" style="ellipse;whiteSpace=wrap;html=1;aspect=fixed;" vertex="1" parent="zHlLIxlJmCpqL7pYZ1hR-18">
          <mxGeometry x="330" y="1762.5" width="25" height="25" as="geometry" />
        </mxCell>
        <mxCell id="8zSvVwhYpzBeAdVBtArC-65" value="" style="endArrow=classic;html=1;rounded=0;exitX=0;exitY=0.5;exitDx=0;exitDy=0;entryX=1;entryY=0.5;entryDx=0;entryDy=0;" edge="1" parent="zHlLIxlJmCpqL7pYZ1hR-18" source="8zSvVwhYpzBeAdVBtArC-64" target="8zSvVwhYpzBeAdVBtArC-63">
          <mxGeometry width="50" height="50" relative="1" as="geometry">
            <mxPoint x="250" y="1710" as="sourcePoint" />
            <mxPoint x="300" y="1660" as="targetPoint" />
          </mxGeometry>
        </mxCell>
        <mxCell id="8zSvVwhYpzBeAdVBtArC-66" value="YES" style="text;html=1;align=center;verticalAlign=middle;whiteSpace=wrap;rounded=0;" vertex="1" parent="zHlLIxlJmCpqL7pYZ1hR-18">
          <mxGeometry x="222.03000000000003" y="1830" width="60" height="30" as="geometry" />
        </mxCell>
        <mxCell id="8zSvVwhYpzBeAdVBtArC-67" value="NO" style="text;html=1;align=center;verticalAlign=middle;whiteSpace=wrap;rounded=0;" vertex="1" parent="zHlLIxlJmCpqL7pYZ1hR-18">
          <mxGeometry x="131.8" y="1740" width="60" height="30" as="geometry" />
        </mxCell>
        <mxCell id="zHlLIxlJmCpqL7pYZ1hR-5" value="Turn ON&lt;div&gt;system?&lt;/div&gt;" style="rhombus;whiteSpace=wrap;html=1;fillColor=#0050ef;fontColor=#ffffff;strokeColor=#001DBC;" vertex="1" parent="zHlLIxlJmCpqL7pYZ1hR-18">
          <mxGeometry x="190.54999999999995" y="130" width="93.91" height="100" as="geometry" />
        </mxCell>
        <mxCell id="zHlLIxlJmCpqL7pYZ1hR-6" value="" style="endArrow=classic;html=1;rounded=0;exitX=0.5;exitY=1;exitDx=0;exitDy=0;entryX=0.5;entryY=0;entryDx=0;entryDy=0;" edge="1" parent="zHlLIxlJmCpqL7pYZ1hR-18" source="8zSvVwhYpzBeAdVBtArC-1" target="zHlLIxlJmCpqL7pYZ1hR-5">
          <mxGeometry width="50" height="50" relative="1" as="geometry">
            <mxPoint x="260" y="270" as="sourcePoint" />
            <mxPoint x="310" y="220" as="targetPoint" />
          </mxGeometry>
        </mxCell>
        <mxCell id="zHlLIxlJmCpqL7pYZ1hR-8" value="" style="endArrow=classic;html=1;rounded=0;exitX=0.5;exitY=1;exitDx=0;exitDy=0;" edge="1" parent="zHlLIxlJmCpqL7pYZ1hR-18" source="zHlLIxlJmCpqL7pYZ1hR-5">
          <mxGeometry width="50" height="50" relative="1" as="geometry">
            <mxPoint x="260" y="210" as="sourcePoint" />
            <mxPoint x="238" y="280" as="targetPoint" />
          </mxGeometry>
        </mxCell>
        <mxCell id="zHlLIxlJmCpqL7pYZ1hR-9" value="YES" style="text;html=1;align=center;verticalAlign=middle;whiteSpace=wrap;rounded=0;" vertex="1" parent="zHlLIxlJmCpqL7pYZ1hR-18">
          <mxGeometry x="232.51" y="220" width="60" height="30" as="geometry" />
        </mxCell>
        <mxCell id="zHlLIxlJmCpqL7pYZ1hR-10" value="" style="endArrow=classic;html=1;rounded=0;exitX=1;exitY=0.5;exitDx=0;exitDy=0;" edge="1" parent="zHlLIxlJmCpqL7pYZ1hR-18" source="zHlLIxlJmCpqL7pYZ1hR-5" target="zHlLIxlJmCpqL7pYZ1hR-11">
          <mxGeometry width="50" height="50" relative="1" as="geometry">
            <mxPoint x="285.71" y="180" as="sourcePoint" />
            <mxPoint x="370" y="180" as="targetPoint" />
          </mxGeometry>
        </mxCell>
        <mxCell id="zHlLIxlJmCpqL7pYZ1hR-11" value="show current&lt;div&gt;&amp;nbsp;time&lt;/div&gt;" style="shape=parallelogram;perimeter=parallelogramPerimeter;whiteSpace=wrap;html=1;fixedSize=1;fillColor=#f5f5f5;fontColor=#333333;strokeColor=#666666;" vertex="1" parent="zHlLIxlJmCpqL7pYZ1hR-18">
          <mxGeometry x="355" y="150" width="120" height="60" as="geometry" />
        </mxCell>
        <mxCell id="zHlLIxlJmCpqL7pYZ1hR-12" value="NO" style="text;html=1;align=center;verticalAlign=middle;whiteSpace=wrap;rounded=0;" vertex="1" parent="zHlLIxlJmCpqL7pYZ1hR-18">
          <mxGeometry x="280" y="150" width="60" height="30" as="geometry" />
        </mxCell>
        <mxCell id="zHlLIxlJmCpqL7pYZ1hR-13" value="Manual Turn off by staffs" style="rounded=0;whiteSpace=wrap;html=1;fillColor=#dae8fc;strokeColor=#6c8ebf;" vertex="1" parent="zHlLIxlJmCpqL7pYZ1hR-18">
          <mxGeometry x="181.25000000000006" y="1880" width="120" height="60" as="geometry" />
        </mxCell>
        <mxCell id="zHlLIxlJmCpqL7pYZ1hR-15" value="" style="endArrow=classic;html=1;rounded=0;exitX=0.5;exitY=1;exitDx=0;exitDy=0;entryX=0.44;entryY=-0.033;entryDx=0;entryDy=0;entryPerimeter=0;" edge="1" parent="zHlLIxlJmCpqL7pYZ1hR-18" source="8zSvVwhYpzBeAdVBtArC-63" target="zHlLIxlJmCpqL7pYZ1hR-13">
          <mxGeometry width="50" height="50" relative="1" as="geometry">
            <mxPoint x="260" y="1930" as="sourcePoint" />
            <mxPoint x="310" y="1880" as="targetPoint" />
          </mxGeometry>
        </mxCell>
        <mxCell id="zHlLIxlJmCpqL7pYZ1hR-17" value="" style="endArrow=classic;html=1;rounded=0;exitX=1;exitY=0.5;exitDx=0;exitDy=0;" edge="1" parent="zHlLIxlJmCpqL7pYZ1hR-18" source="zHlLIxlJmCpqL7pYZ1hR-13">
          <mxGeometry width="50" height="50" relative="1" as="geometry">
            <mxPoint x="260" y="1880" as="sourcePoint" />
            <mxPoint x="370" y="1910" as="targetPoint" />
          </mxGeometry>
        </mxCell>
      </root>
    </mxGraphModel>
  </diagram>
</mxfile>
